<svg version="1.1" xmlns="http://www.w3.org/2000/svg" xmlns:xlink="http://www.w3.org/1999/xlink" x="0px" y="0px"
	 viewBox="0 0 250 250" style="enable-background:new 0 0 250 250;" xml:space="preserve">
<g>
	<path d="M239.79,157.83c-1.28-19.4-9.96-54.38-16.09-69.45c-6.13-15.06-10.47-23.49-19.66-32.68
		c-9.19-9.19-22.98-10.89-28.26-10.89s-13.62,0.68-23.32,4.43s-48.85,3.74-58.55,0c-9.7-3.74-18.04-4.43-23.32-4.43
		c-5.28,0-19.06,1.7-28.26,10.89c-9.19,9.19-13.53,17.62-19.66,32.68c-6.13,15.06-14.81,50.04-16.09,69.45
		c-1.28,19.4-1.27,27.15,0.26,38.04c1.11,7.91,4.6,16.09,14.81,16.09c10.21,0,24.51-11.23,36.77-27.32
		c12.26-16.09,31.91-13.79,31.91-13.79h65.7c0,0,19.66-2.3,31.91,13.79c12.26,16.09,26.55,27.32,36.77,27.32
		s13.53-10.72,14.81-16.09C242.08,185.17,241.06,177.23,239.79,157.83z M56.21,131.79c-11.84,0-21.45-9.6-21.45-21.45
		c0-11.84,9.6-21.45,21.45-21.45s21.45,9.6,21.45,21.45C77.66,122.19,68.06,131.79,56.21,131.79z M151.69,120.57
		c-5.65,0-10.23-4.58-10.23-10.23c0-5.65,4.58-10.23,10.23-10.23s10.23,4.58,10.23,10.23C161.91,115.99,157.34,120.57,151.69,120.57
		z M174.17,144.05c-5.65,0-10.23-4.58-10.23-10.23c0-5.65,4.58-10.23,10.23-10.23c5.65,0,10.23,4.58,10.23,10.23
		C184.39,139.47,179.82,144.05,174.17,144.05z M174.17,99.09c-5.65,0-10.23-4.58-10.23-10.23c0-5.65,4.58-10.23,10.23-10.23
		c5.65,0,10.23,4.58,10.23,10.23C184.39,94.51,179.82,99.09,174.17,99.09z M196.65,120.57c-5.65,0-10.23-4.58-10.23-10.23
		c0-5.65,4.58-10.23,10.23-10.23c5.65,0,10.23,4.58,10.23,10.23C206.87,115.99,202.29,120.57,196.65,120.57z"/>
</g>
</svg>
