<?xml version="1.0" encoding="utf-8"?>
<!-- Generator: Adobe Illustrator 23.0.3, SVG Export Plug-In . SVG Version: 6.00 Build 0)  -->
<svg version="1.1" id="Слой_2" xmlns="http://www.w3.org/2000/svg" xmlns:xlink="http://www.w3.org/1999/xlink" x="0px" y="0px"
	 viewBox="0 0 250 250" style="enable-background:new 0 0 250 250;" xml:space="preserve" fill="#fff">
<g>
	<path d="M125,75.29c27.41,0,49.71,22.3,49.71,49.71s-22.3,49.71-49.71,49.71S75.29,152.41,75.29,125S97.59,75.29,125,75.29
		 M125,59.81C89,59.81,59.81,89,59.81,125S89,190.19,125,190.19S190.19,161,190.19,125S161,59.81,125,59.81L125,59.81z"/>
</g>
<g>
	<path d="M161.94,109.32l-11.01-11.01l-35.49,35.49l-16.37-16.37l-11.01,11.01l20.36,20.36c3.86,3.86,10.12,3.86,13.98,0
		L161.94,109.32z"/>
</g>
<path d="M125,247.07c-2.96,0-5.92-0.97-8.39-2.91l0,0c-5.07-3.99-17.28-13.27-46.63-34.82l-0.67-0.56
	c-46.13-42.65-49.75-96.56-49.88-98.83l-0.01-0.45V57.67c0-5.34,3.15-10.21,8.03-12.39l92.02-41.16c3.52-1.58,7.57-1.58,11.09,0
	l92.01,41.16c4.88,2.19,8.03,7.05,8.03,12.39l-0.01,52.27c-0.13,2.27-3.75,56.18-49.88,98.83l-0.67,0.56
	c-29.36,21.56-41.56,30.83-46.64,34.82C130.92,246.1,127.96,247.07,125,247.07z M79.49,197.13c27.24,20.01,39.76,29.47,45.51,33.95
	c5.75-4.47,18.26-13.94,45.51-33.95c40.03-37.24,44.35-84.57,44.61-87.89V58.9L125,18.59L34.88,58.9v50.32
	C35.14,112.48,39.63,160.04,79.49,197.13z"/>
</svg>
