<?xml version="1.0" encoding="utf-8"?>
<!-- Generator: Adobe Illustrator 23.0.3, SVG Export Plug-In . SVG Version: 6.00 Build 0)  -->
<svg version="1.1" xmlns="http://www.w3.org/2000/svg" xmlns:xlink="http://www.w3.org/1999/xlink" x="0px" y="0px"
	 viewBox="0 0 250 250" style="enable-background:new 0 0 250 250;" xml:space="preserve">
<g id="Слой_1">
</g>
<g id="Слой_2">
</g>
<g id="Слой_3">
</g>
<g id="Слой_4">
	<g>
		<path d="M210.39,82.62C199.23,46.05,165.23,19.43,125,19.43S50.77,46.05,39.61,82.62c-19.02,1.4-34.16,17.39-34.16,36.75v19.02
			c0,20.28,16.59,36.86,36.86,36.86h0c5.25,0,9.06,0.27,13.07-1.34c1.71-0.69,2.82-2.35,2.77-4.2c-0.11-4.13-0.29-11.87-0.29-15.9
			v-47.75c0-35.33,28.91-64.24,64.24-64.24h5.81c35.33,0,64.24,28.91,64.24,64.24v47.75c0,30.56-21.64,56.3-50.34,62.69
			c-1.94-2.12-4.72-3.46-7.81-3.46h-17.97c-3.08,0-5.86,1.34-7.81,3.46c-0.03-0.01-0.07-0.01-0.1-0.02
			c0.02,0.02,0.04,0.04,0.06,0.06c-1.71,1.89-2.77,4.38-2.77,7.11v1.9c0,5.84,4.78,10.61,10.61,10.61h17.97
			c4.46,0,8.3-2.8,9.86-6.72c29.56-6.59,47.84-28.69,58.34-54.65c1.79,0.3,3.63,0.46,5.51,0.46h0c20.28,0,36.86-16.59,36.86-36.86
			v-19.02C244.56,100.01,229.42,84.02,210.39,82.62z"/>
		<path d="M139.88,87.41c0,0,16.33,19.43,44.91,21.28c0-31.46-25.74-57.2-57.2-57.2h-5.17c-31.46,0-57.2,25.74-57.2,57.2h16.78
			C124.37,106.49,139.88,87.41,139.88,87.41z"/>
		<path d="M99.06,175.78c0,0.06-0.01,0.11-0.01,0.17c0,10.33,11.62,18.7,25.95,18.7c14.33,0,25.95-8.37,25.95-18.7
			c0-0.06-0.01-0.11-0.01-0.17H99.06z"/>
		<circle cx="95.94" cy="128.94" r="10.52"/>
		<circle cx="154.58" cy="128.94" r="10.52"/>
	</g>
</g>
</svg>
